<?xml version="1.0" encoding="UTF-8"?>
<svg xmlns="http://www.w3.org/2000/svg" xmlns:xlink="http://www.w3.org/1999/xlink" width="300pt" height="125pt" viewBox="0 0 300 125" version="1.1">
<g id="surface1">
<path style=" stroke:none;fill-rule:nonzero;fill:rgb(19.215686%,95.686275%,84.313725%);fill-opacity:1;" d="M 70.765625 124.957031 L 30.515625 124.957031 C 13.640625 124.949219 -0.0234375 111.238281 0 94.347656 L 0 54.070312 C 0 37.199219 13.664062 23.523438 30.515625 23.523438 L 70.765625 23.523438 C 87.621094 23.523438 101.28125 37.199219 101.28125 54.070312 L 101.28125 94.347656 C 101.308594 111.238281 87.640625 124.949219 70.765625 124.957031 "/>
<path style=" stroke:none;fill-rule:nonzero;fill:rgb(7.058824%,23.529412%,33.72549%);fill-opacity:1;" d="M 75.347656 54.726562 C 70.417969 49.773438 63.773438 47.296875 55.417969 47.296875 C 50.402344 47.414062 45.433594 48.292969 40.675781 49.898438 L 40.675781 34.183594 C 40.710938 33.339844 40.390625 32.515625 39.796875 31.914062 C 39.207031 31.328125 38.402344 31.011719 37.574219 31.03125 L 26.148438 31.03125 C 25.320312 31.011719 24.519531 31.328125 23.929688 31.914062 C 23.332031 32.515625 23.011719 33.339844 23.046875 34.183594 L 23.046875 88.773438 C 23.003906 95.9375 27.992188 102.144531 34.988281 103.636719 C 40.046875 104.679688 45.203125 105.1875 50.367188 105.160156 C 71.957031 105.160156 82.75 95.515625 82.738281 76.226562 C 82.738281 66.828125 80.273438 59.640625 75.347656 54.664062 M 61.65625 88.941406 C 59.625 91.632812 56.355469 92.976562 51.84375 92.976562 C 49.546875 92.996094 47.25 92.867188 44.96875 92.597656 C 42.527344 92.320312 40.683594 90.257812 40.675781 87.800781 L 40.675781 64.273438 C 37.46875 64.070312 34.25 64.175781 31.0625 64.59375 C 35.03125 63.09375 39.097656 61.863281 43.234375 60.910156 C 45.996094 60.113281 48.847656 59.671875 51.722656 59.597656 C 56.386719 59.597656 59.691406 60.917969 61.640625 63.558594 C 63.585938 66.199219 64.570312 70.421875 64.589844 76.226562 C 64.589844 82.074219 63.601562 86.324219 61.546875 88.941406 "/>
<path style=" stroke:none;fill-rule:nonzero;fill:rgb(19.215686%,95.686275%,84.313725%);fill-opacity:1;" d="M 40.691406 8.921875 C 40.691406 12.5 38.535156 15.726562 35.226562 17.089844 C 31.921875 18.449219 28.121094 17.679688 25.605469 15.140625 C 23.085938 12.597656 22.351562 8.785156 23.738281 5.488281 C 25.128906 2.191406 28.371094 0.0585938 31.945312 0.0898438 C 36.816406 0.0976562 40.761719 4.046875 40.769531 8.921875 "/>
<path style=" stroke:none;fill-rule:nonzero;fill:rgb(7.058824%,23.529412%,33.72549%);fill-opacity:1;" d="M 81.734375 39.484375 L 80.609375 39.484375 L 80.609375 38.875 L 83.53125 38.875 L 83.53125 39.484375 L 82.40625 39.484375 L 82.40625 42.421875 L 81.734375 42.421875 Z M 81.734375 39.484375 "/>
<path style=" stroke:none;fill-rule:nonzero;fill:rgb(7.058824%,23.529412%,33.72549%);fill-opacity:1;" d="M 87.027344 39.847656 L 85.871094 41.386719 L 85.734375 41.386719 L 84.609375 39.847656 L 84.609375 42.421875 L 83.941406 42.421875 L 83.941406 38.875 L 84.71875 38.875 L 85.828125 40.398438 L 86.9375 38.875 L 87.699219 38.875 L 87.699219 42.421875 L 87.027344 42.421875 Z M 87.027344 39.847656 "/>
<path style=" stroke:none;fill-rule:nonzero;fill:rgb(100%,100%,100%);fill-opacity:1;" d="M 130.460938 39.847656 C 129.230469 39.929688 128.023438 39.480469 127.144531 38.617188 C 126.316406 37.644531 125.90625 36.386719 126.003906 35.113281 C 125.929688 33.851562 126.335938 32.609375 127.144531 31.640625 C 128.023438 30.773438 129.230469 30.324219 130.460938 30.40625 C 131.675781 30.324219 132.871094 30.777344 133.730469 31.640625 C 134.503906 32.628906 134.894531 33.859375 134.824219 35.113281 C 134.902344 36.363281 134.511719 37.59375 133.730469 38.570312 C 132.871094 39.433594 131.675781 39.886719 130.460938 39.804688 M 129.5 80.15625 C 128.699219 80.261719 127.898438 79.984375 127.332031 79.40625 C 126.765625 78.828125 126.503906 78.015625 126.625 77.21875 L 126.625 48.042969 C 126.503906 47.242188 126.761719 46.433594 127.332031 45.859375 C 127.898438 45.285156 128.703125 45.015625 129.5 45.132812 L 131.328125 45.132812 C 132.125 45.023438 132.925781 45.296875 133.492188 45.867188 C 134.054688 46.441406 134.320312 47.246094 134.203125 48.042969 L 134.203125 77.261719 C 134.324219 78.0625 134.0625 78.875 133.496094 79.449219 C 132.933594 80.027344 132.128906 80.308594 131.328125 80.203125 Z M 129.5 80.15625 "/>
<path style=" stroke:none;fill-rule:nonzero;fill:rgb(100%,100%,100%);fill-opacity:1;" d="M 179.503906 67.730469 C 179.503906 72.605469 177.984375 75.785156 174.53125 77.644531 C 171.078125 79.5 166.574219 80.203125 159.726562 80.203125 L 154.34375 80.203125 C 150.488281 80.203125 147.746094 79.398438 146.113281 77.796875 C 144.46875 76.273438 143.632812 73.625 143.632812 70.015625 L 143.632812 43.761719 C 143.632812 40.167969 144.46875 37.566406 146.113281 35.949219 C 147.757812 34.335938 150.496094 33.589844 154.296875 33.589844 L 158.480469 33.589844 C 166.085938 33.589844 171.167969 34.503906 174.285156 37.199219 C 176.421875 39.328125 177.53125 42.277344 177.328125 45.285156 C 177.328125 50.296875 175.335938 53.765625 171.351562 55.761719 C 176.871094 57.695312 179.550781 61.472656 179.550781 67.746094 M 151.179688 52.777344 L 159.574219 52.777344 C 163.316406 52.777344 165.960938 52.320312 167.5 51.40625 C 169.113281 50.382812 170.011719 48.542969 169.828125 46.640625 C 170.011719 44.800781 169.117188 43.019531 167.53125 42.070312 C 165.007812 41.054688 162.289062 40.625 159.574219 40.808594 L 154.375 40.808594 C 151.863281 40.808594 151.179688 41.964844 151.179688 44.25 Z M 161.828125 72.953125 C 164.539062 73.152344 167.257812 72.710938 169.769531 71.660156 C 171.378906 70.570312 172.253906 68.675781 172.035156 66.742188 C 172.261719 64.730469 171.375 62.757812 169.722656 61.59375 C 168.203125 60.648438 165.539062 60.191406 161.78125 60.191406 L 151.132812 60.191406 L 151.132812 69.527344 C 151.132812 71.796875 151.816406 72.953125 154.328125 72.953125 Z M 161.828125 72.953125 "/>
<path style=" stroke:none;fill-rule:nonzero;fill:rgb(100%,100%,100%);fill-opacity:1;" d="M 205.472656 47.691406 L 205.472656 48.816406 C 205.472656 50.78125 204.40625 51.757812 202.308594 51.757812 C 197.027344 51.894531 195.003906 51.96875 194.015625 52.914062 C 193.429688 53.628906 193.183594 54.5625 193.332031 55.472656 L 193.332031 77.261719 C 193.453125 78.066406 193.191406 78.878906 192.621094 79.457031 C 192.054688 80.035156 191.246094 80.3125 190.441406 80.203125 L 188.632812 80.203125 C 187.832031 80.308594 187.027344 80.027344 186.460938 79.449219 C 185.894531 78.875 185.632812 78.0625 185.757812 77.261719 L 185.757812 54.589844 C 185.757812 47.171875 188.328125 45.070312 202.351562 44.78125 C 203.167969 44.660156 203.992188 44.921875 204.585938 45.492188 C 205.179688 46.058594 205.480469 46.871094 205.394531 47.691406 "/>
<path style=" stroke:none;fill-rule:nonzero;fill:rgb(100%,100%,100%);fill-opacity:1;" d="M 235.363281 47.828125 C 238.207031 50.082031 239.621094 53.445312 239.621094 57.894531 L 239.621094 70.074219 C 239.621094 73.679688 238.796875 76.273438 237.144531 77.855469 C 235.5 79.378906 232.792969 80.261719 228.988281 80.261719 L 221.65625 80.261719 C 217.292969 80.261719 214.050781 79.457031 211.84375 77.855469 C 209.640625 76.257812 208.515625 73.503906 208.515625 69.589844 C 208.515625 65.675781 209.609375 62.859375 211.84375 61.273438 C 214.082031 59.691406 217.292969 58.898438 221.65625 58.898438 L 232.183594 58.898438 L 232.183594 57.953125 C 232.183594 53.707031 229.140625 51.574219 223.132812 51.574219 C 219.976562 51.640625 216.839844 52.027344 213.761719 52.730469 C 211.738281 53.144531 210.535156 52.246094 210.535156 50.171875 L 210.535156 49.230469 C 210.5 47.472656 211.828125 45.984375 213.578125 45.832031 C 217.007812 45.003906 220.519531 44.570312 224.046875 44.539062 C 228.109375 44.324219 232.125 45.507812 235.425781 47.890625 M 228.183594 73.578125 C 231.4375 73.578125 232.230469 72.328125 232.230469 69.617188 L 232.230469 65.460938 L 221.734375 65.460938 C 220.125 65.296875 218.503906 65.601562 217.0625 66.328125 C 216.171875 67.140625 215.726562 68.332031 215.859375 69.527344 C 215.738281 70.710938 216.183594 71.878906 217.0625 72.679688 C 218.503906 73.417969 220.121094 73.730469 221.734375 73.578125 Z M 228.183594 73.578125 "/>
<path style=" stroke:none;fill-rule:nonzero;fill:rgb(100%,100%,100%);fill-opacity:1;" d="M 251.488281 39.847656 C 250.253906 39.929688 249.042969 39.480469 248.15625 38.617188 C 247.351562 37.652344 246.949219 36.414062 247.03125 35.160156 C 246.960938 33.902344 247.363281 32.664062 248.15625 31.6875 C 249.042969 30.820312 250.253906 30.371094 251.488281 30.453125 C 252.703125 30.367188 253.890625 30.816406 254.742188 31.6875 C 255.515625 32.671875 255.90625 33.90625 255.839844 35.160156 C 255.917969 36.40625 255.527344 37.640625 254.742188 38.617188 C 253.890625 39.484375 252.703125 39.933594 251.488281 39.847656 M 250.53125 80.203125 C 249.730469 80.308594 248.925781 80.027344 248.359375 79.449219 C 247.792969 78.875 247.535156 78.0625 247.65625 77.261719 L 247.65625 48.042969 C 247.53125 47.242188 247.792969 46.433594 248.359375 45.859375 C 248.925781 45.285156 249.730469 45.015625 250.53125 45.132812 L 252.339844 45.132812 C 253.136719 45.023438 253.941406 45.296875 254.507812 45.867188 C 255.074219 46.4375 255.34375 47.242188 255.230469 48.042969 L 255.230469 77.261719 C 255.351562 78.066406 255.089844 78.878906 254.519531 79.457031 C 253.953125 80.035156 253.144531 80.3125 252.339844 80.203125 Z M 250.53125 80.203125 "/>
<path style=" stroke:none;fill-rule:nonzero;fill:rgb(100%,100%,100%);fill-opacity:1;" d="M 279.707031 44.476562 C 282.054688 44.445312 284.394531 44.710938 286.675781 45.269531 C 288.558594 45.78125 290.3125 46.691406 291.816406 47.933594 C 294.765625 50.460938 296.195312 54.773438 296.195312 61.046875 L 296.195312 77.261719 C 296.320312 78.0625 296.058594 78.875 295.492188 79.449219 C 294.925781 80.027344 294.121094 80.308594 293.320312 80.203125 L 291.679688 80.203125 C 290.875 80.3125 290.066406 80.035156 289.496094 79.457031 C 288.929688 78.878906 288.664062 78.066406 288.789062 77.261719 L 288.789062 61 C 288.789062 57.359375 288.105469 54.910156 286.734375 53.507812 C 285.367188 52.105469 282.992188 51.484375 279.707031 51.484375 C 276.421875 51.484375 274.15625 52.136719 272.753906 53.507812 C 271.355469 54.878906 270.65625 57.390625 270.65625 61 L 270.65625 77.261719 C 270.78125 78.070312 270.515625 78.890625 269.9375 79.472656 C 269.359375 80.050781 268.542969 80.324219 267.734375 80.203125 L 266.078125 80.203125 C 265.277344 80.308594 264.472656 80.027344 263.90625 79.449219 C 263.339844 78.875 263.082031 78.0625 263.203125 77.261719 L 263.203125 61 C 263.066406 51.496094 266.835938 46.808594 272.738281 45.222656 C 275.003906 44.664062 277.328125 44.398438 279.660156 44.433594 "/>
<path style=" stroke:none;fill-rule:nonzero;fill:rgb(19.215686%,95.686275%,84.313725%);fill-opacity:1;" d="M 141.640625 93.90625 C 141.988281 93.859375 142.339844 93.980469 142.585938 94.230469 C 142.832031 94.484375 142.945312 94.839844 142.886719 95.1875 L 142.886719 95.808594 C 142.9375 96.15625 142.824219 96.503906 142.578125 96.753906 C 142.335938 97.003906 141.988281 97.121094 141.640625 97.074219 L 136.210938 97.074219 L 136.210938 112.878906 C 136.265625 113.230469 136.15625 113.582031 135.910156 113.835938 C 135.664062 114.085938 135.3125 114.207031 134.960938 114.160156 L 134.140625 114.160156 C 133.792969 114.207031 133.441406 114.085938 133.195312 113.835938 C 132.949219 113.582031 132.835938 113.230469 132.894531 112.878906 L 132.894531 97.074219 L 127.464844 97.074219 C 127.117188 97.121094 126.769531 97.003906 126.523438 96.753906 C 126.277344 96.503906 126.164062 96.15625 126.214844 95.808594 L 126.214844 95.1875 C 126.164062 94.839844 126.28125 94.488281 126.523438 94.238281 C 126.769531 93.988281 127.117188 93.867188 127.464844 93.90625 Z M 141.640625 93.90625 "/>
<path style=" stroke:none;fill-rule:nonzero;fill:rgb(19.215686%,95.686275%,84.313725%);fill-opacity:1;" d="M 154.691406 106.804688 C 153.84375 107.4375 152.816406 107.789062 151.757812 107.808594 L 145.019531 108.527344 C 145.535156 110.445312 146.996094 111.402344 149.382812 111.417969 C 150.605469 111.394531 151.816406 111.210938 152.988281 110.871094 C 153.886719 110.640625 154.511719 111.039062 154.511719 111.953125 L 154.511719 112.332031 C 154.5625 113.007812 154.109375 113.621094 153.445312 113.765625 C 152.015625 114.171875 150.535156 114.390625 149.050781 114.417969 C 147.042969 114.53125 145.082031 113.804688 143.632812 112.410156 C 142.136719 110.835938 141.355469 108.714844 141.472656 106.546875 C 141.472656 101.445312 144.058594 98.628906 148.898438 98.628906 C 150.636719 98.53125 152.351562 99.070312 153.71875 100.152344 C 154.902344 101.230469 155.535156 102.785156 155.4375 104.382812 C 155.511719 105.277344 155.222656 106.160156 154.632812 106.835938 M 150.964844 104.960938 C 152.046875 104.839844 152.242188 104.671875 152.242188 104.078125 C 152.242188 102.449219 151.117188 101.628906 148.898438 101.644531 C 146.355469 101.644531 144.988281 102.847656 144.746094 105.601562 Z M 150.964844 104.960938 "/>
<path style=" stroke:none;fill-rule:nonzero;fill:rgb(19.215686%,95.686275%,84.313725%);fill-opacity:1;" d="M 160.945312 106.546875 C 160.945312 109.972656 162.285156 111.402344 165.3125 111.402344 C 166.304688 111.386719 167.292969 111.273438 168.261719 111.070312 C 169.128906 110.886719 169.648438 111.28125 169.648438 112.179688 L 169.648438 112.578125 C 169.710938 113.257812 169.242188 113.875 168.566406 113.992188 C 167.4375 114.285156 166.277344 114.433594 165.113281 114.433594 C 163.121094 114.527344 161.171875 113.800781 159.726562 112.425781 C 158.28125 110.824219 157.550781 108.699219 157.703125 106.546875 C 157.535156 104.367188 158.269531 102.214844 159.726562 100.59375 C 161.175781 99.195312 163.136719 98.460938 165.144531 98.566406 C 166.308594 98.578125 167.46875 98.734375 168.597656 99.023438 C 169.273438 99.140625 169.742188 99.757812 169.675781 100.441406 L 169.675781 100.820312 C 169.675781 101.6875 169.082031 102.070312 168.066406 101.886719 C 167.167969 101.714844 166.253906 101.621094 165.339844 101.613281 C 162.300781 101.613281 160.976562 103.136719 160.976562 106.484375 "/>
<path style=" stroke:none;fill-rule:nonzero;fill:rgb(19.215686%,95.686275%,84.313725%);fill-opacity:1;" d="M 184.066406 100.453125 C 185.609375 102.085938 186.363281 104.3125 186.136719 106.546875 L 186.136719 112.910156 C 186.191406 113.257812 186.082031 113.613281 185.835938 113.867188 C 185.589844 114.117188 185.238281 114.238281 184.890625 114.191406 L 184.175781 114.191406 C 183.824219 114.238281 183.472656 114.117188 183.226562 113.867188 C 182.980469 113.613281 182.871094 113.257812 182.925781 112.910156 L 182.925781 106.515625 C 183.082031 105.144531 182.667969 103.769531 181.785156 102.707031 C 180.683594 101.914062 179.332031 101.546875 177.984375 101.671875 C 177.207031 101.671875 176.277344 101.671875 175.183594 101.839844 L 175.183594 112.878906 C 175.238281 113.230469 175.128906 113.582031 174.882812 113.835938 C 174.636719 114.085938 174.285156 114.207031 173.9375 114.160156 L 173.222656 114.160156 C 172.871094 114.207031 172.523438 114.085938 172.277344 113.835938 C 172.03125 113.582031 171.917969 113.230469 171.972656 112.878906 L 171.972656 93.617188 C 171.917969 93.269531 172.03125 92.914062 172.277344 92.664062 C 172.523438 92.410156 172.871094 92.289062 173.222656 92.339844 L 173.9375 92.339844 C 174.285156 92.289062 174.636719 92.410156 174.882812 92.664062 C 175.128906 92.914062 175.238281 93.269531 175.183594 93.617188 L 175.183594 98.78125 C 176.09375 98.675781 177.007812 98.625 177.921875 98.628906 C 180.105469 98.480469 182.265625 99.128906 184.007812 100.453125 "/>
<path style=" stroke:none;fill-rule:nonzero;fill:rgb(19.215686%,95.686275%,84.313725%);fill-opacity:1;" d="M 196.421875 98.628906 C 197.445312 98.609375 198.46875 98.730469 199.460938 98.976562 C 200.285156 99.195312 201.046875 99.589844 201.699219 100.136719 C 202.976562 101.230469 203.601562 103.179688 203.601562 105.832031 L 203.601562 112.878906 C 203.65625 113.230469 203.542969 113.582031 203.296875 113.835938 C 203.050781 114.085938 202.703125 114.207031 202.351562 114.160156 L 201.636719 114.160156 C 201.289062 114.207031 200.9375 114.085938 200.691406 113.835938 C 200.445312 113.582031 200.335938 113.230469 200.390625 112.878906 L 200.390625 105.816406 C 200.519531 104.652344 200.199219 103.488281 199.492188 102.554688 C 198.628906 101.882812 197.539062 101.566406 196.449219 101.671875 C 195.359375 101.558594 194.269531 101.875 193.40625 102.554688 C 192.6875 103.480469 192.359375 104.652344 192.496094 105.816406 L 192.496094 112.878906 C 192.546875 113.226562 192.429688 113.578125 192.1875 113.828125 C 191.941406 114.078125 191.59375 114.203125 191.246094 114.160156 L 190.519531 114.160156 C 190.171875 114.203125 189.824219 114.078125 189.578125 113.828125 C 189.335938 113.578125 189.21875 113.226562 189.269531 112.878906 L 189.269531 105.832031 C 189.269531 101.703125 190.792969 99.738281 193.40625 98.976562 C 194.402344 98.726562 195.425781 98.609375 196.449219 98.628906 "/>
<path style=" stroke:none;fill-rule:nonzero;fill:rgb(19.215686%,95.686275%,84.313725%);fill-opacity:1;" d="M 208.226562 112.378906 C 206.847656 110.757812 206.15625 108.667969 206.292969 106.546875 C 206.15625 104.414062 206.847656 102.3125 208.226562 100.683594 C 211.347656 97.945312 216.011719 97.945312 219.132812 100.683594 C 220.507812 102.3125 221.203125 104.414062 221.0625 106.546875 C 221.203125 108.664062 220.507812 110.75 219.132812 112.363281 C 216.015625 115.113281 211.339844 115.113281 208.226562 112.363281 M 217.792969 106.53125 C 217.792969 103.195312 216.46875 101.65625 213.6875 101.65625 C 210.902344 101.65625 209.546875 103.179688 209.546875 106.53125 C 209.546875 109.882812 210.902344 111.386719 213.6875 111.386719 C 216.46875 111.386719 217.792969 109.867188 217.792969 106.53125 "/>
<path style=" stroke:none;fill-rule:nonzero;fill:rgb(19.215686%,95.686275%,84.313725%);fill-opacity:1;" d="M 224.152344 93.617188 C 224.101562 93.269531 224.21875 92.914062 224.464844 92.664062 C 224.714844 92.414062 225.066406 92.292969 225.414062 92.339844 L 226.207031 92.339844 C 226.554688 92.296875 226.898438 92.417969 227.144531 92.671875 C 227.386719 92.921875 227.503906 93.269531 227.453125 93.617188 L 227.453125 112.878906 C 227.503906 113.226562 227.386719 113.578125 227.144531 113.828125 C 226.898438 114.078125 226.554688 114.203125 226.207031 114.160156 L 225.414062 114.160156 C 225.066406 114.207031 224.714844 114.085938 224.464844 113.835938 C 224.21875 113.582031 224.101562 113.230469 224.152344 112.878906 Z M 224.152344 93.617188 "/>
<path style=" stroke:none;fill-rule:nonzero;fill:rgb(19.215686%,95.686275%,84.313725%);fill-opacity:1;" d="M 232.503906 112.378906 C 231.117188 110.765625 230.414062 108.671875 230.554688 106.546875 C 230.417969 104.414062 231.113281 102.308594 232.503906 100.683594 C 235.617188 97.941406 240.28125 97.941406 243.394531 100.683594 C 244.785156 102.308594 245.484375 104.414062 245.34375 106.546875 C 245.484375 108.664062 244.785156 110.757812 243.394531 112.363281 C 240.285156 115.113281 235.613281 115.113281 232.503906 112.363281 M 242.058594 106.53125 C 242.058594 103.195312 240.734375 101.65625 237.949219 101.65625 C 235.164062 101.65625 233.828125 103.179688 233.828125 106.53125 C 233.828125 109.882812 235.164062 111.386719 237.949219 111.386719 C 240.734375 111.386719 242.058594 109.867188 242.058594 106.53125 "/>
<path style=" stroke:none;fill-rule:nonzero;fill:rgb(19.215686%,95.686275%,84.313725%);fill-opacity:1;" d="M 260.464844 99.738281 C 261.449219 100.65625 261.953125 101.976562 261.832031 103.316406 L 261.832031 114.816406 C 261.933594 117.105469 260.570312 119.210938 258.441406 120.054688 C 257.3125 120.476562 256.117188 120.683594 254.910156 120.660156 C 253.589844 120.644531 252.273438 120.449219 251 120.082031 C 250.34375 119.941406 249.898438 119.324219 249.96875 118.652344 L 249.96875 118.195312 C 249.96875 117.296875 250.46875 116.871094 251.367188 117.097656 C 252.484375 117.398438 253.632812 117.558594 254.789062 117.570312 C 257.175781 117.570312 258.636719 116.6875 258.636719 114.816406 L 258.636719 114.296875 C 257.722656 114.40625 256.804688 114.460938 255.882812 114.464844 C 253.703125 114.605469 251.542969 113.957031 249.800781 112.636719 C 248.257812 111.003906 247.503906 108.78125 247.730469 106.546875 C 247.511719 104.3125 248.265625 102.089844 249.800781 100.453125 C 251.539062 99.128906 253.703125 98.480469 255.882812 98.628906 C 257.484375 98.492188 259.089844 98.882812 260.449219 99.738281 M 258.609375 111.25 L 258.609375 103.773438 C 258.679688 103.21875 258.496094 102.65625 258.105469 102.25 C 257.382812 101.777344 256.511719 101.585938 255.65625 101.703125 C 254.34375 101.589844 253.03125 101.972656 251.992188 102.785156 C 251.117188 103.84375 250.707031 105.210938 250.847656 106.578125 C 250.707031 107.933594 251.117188 109.289062 251.992188 110.335938 C 253.027344 111.160156 254.339844 111.554688 255.65625 111.433594 C 256.644531 111.4375 257.628906 111.375 258.609375 111.25 "/>
<path style=" stroke:none;fill-rule:nonzero;fill:rgb(19.215686%,95.686275%,84.313725%);fill-opacity:1;" d="M 266.960938 96.617188 C 266.398438 96.679688 265.84375 96.492188 265.4375 96.101562 C 265.085938 95.671875 264.914062 95.128906 264.949219 94.578125 C 264.917969 94.027344 265.089844 93.484375 265.4375 93.054688 C 265.839844 92.660156 266.398438 92.464844 266.960938 92.519531 C 267.488281 92.480469 268.003906 92.675781 268.375 93.054688 C 268.71875 93.484375 268.894531 94.027344 268.859375 94.578125 C 268.898438 95.128906 268.722656 95.671875 268.375 96.101562 C 268.003906 96.472656 267.484375 96.664062 266.960938 96.617188 M 266.546875 114.160156 C 266.199219 114.207031 265.847656 114.085938 265.601562 113.835938 C 265.355469 113.582031 265.246094 113.230469 265.300781 112.878906 L 265.300781 100.179688 C 265.300781 99.328125 265.710938 98.902344 266.546875 98.917969 L 267.339844 98.917969 C 267.683594 98.871094 268.03125 98.988281 268.277344 99.238281 C 268.523438 99.484375 268.636719 99.835938 268.585938 100.179688 L 268.585938 112.878906 C 268.644531 113.230469 268.53125 113.582031 268.285156 113.835938 C 268.039062 114.085938 267.6875 114.207031 267.339844 114.160156 Z M 266.546875 114.160156 "/>
<path style=" stroke:none;fill-rule:nonzero;fill:rgb(19.215686%,95.686275%,84.313725%);fill-opacity:1;" d="M 284.847656 106.804688 C 284 107.4375 282.972656 107.789062 281.914062 107.808594 L 275.171875 108.527344 C 275.691406 110.445312 277.152344 111.402344 279.539062 111.417969 C 280.765625 111.394531 281.980469 111.210938 283.160156 110.871094 C 284.042969 110.640625 284.589844 111.039062 284.589844 111.953125 L 284.589844 112.332031 C 284.644531 113.007812 284.1875 113.621094 283.523438 113.765625 C 282.09375 114.171875 280.617188 114.390625 279.128906 114.417969 C 277.121094 114.53125 275.160156 113.804688 273.714844 112.410156 C 272.277344 110.808594 271.554688 108.691406 271.707031 106.546875 C 271.707031 101.445312 274.277344 98.628906 279.113281 98.628906 C 280.855469 98.53125 282.574219 99.074219 283.949219 100.152344 C 285.121094 101.234375 285.746094 102.789062 285.65625 104.382812 C 285.738281 105.277344 285.445312 106.164062 284.847656 106.835938 M 281.183594 104.960938 C 282.261719 104.839844 282.460938 104.671875 282.460938 104.078125 C 282.460938 102.449219 281.335938 101.628906 279.113281 101.644531 C 276.574219 101.644531 275.203125 102.847656 274.960938 105.601562 Z M 281.183594 104.960938 "/>
<path style=" stroke:none;fill-rule:nonzero;fill:rgb(19.215686%,95.686275%,84.313725%);fill-opacity:1;" d="M 287.785156 112.332031 L 287.785156 111.953125 C 287.785156 111.054688 288.285156 110.65625 289.183594 110.839844 C 290.894531 111.242188 292.644531 111.429688 294.402344 111.386719 C 295.921875 111.386719 296.789062 110.75 296.789062 109.757812 C 296.789062 108.769531 296.242188 108.480469 294.980469 108.128906 L 291.585938 107.214844 C 288.957031 106.515625 287.632812 105.097656 287.632812 102.984375 C 287.664062 101.074219 289.019531 99.449219 290.886719 99.070312 C 293.242188 98.53125 295.695312 98.617188 298.007812 99.3125 C 298.675781 99.449219 299.140625 100.0625 299.085938 100.746094 L 299.085938 101.109375 C 299.085938 102.007812 298.570312 102.417969 297.671875 102.175781 C 294.628906 101.429688 290.84375 101.339844 290.84375 103.011719 C 290.84375 103.621094 291.285156 104.046875 292.121094 104.277344 L 295.800781 105.238281 C 298.660156 105.984375 300 107.398438 300 109.714844 C 299.972656 111.855469 298.460938 113.695312 296.363281 114.128906 C 293.851562 114.722656 291.222656 114.625 288.757812 113.855469 C 288.070312 113.695312 287.617188 113.03125 287.722656 112.332031 "/>
</g>
</svg>
